<?xml version="1.0" standalone="no"?>
<!DOCTYPE svg PUBLIC "-//W3C//DTD SVG 20010904//EN"
 "http://www.w3.org/TR/2001/REC-SVG-20010904/DTD/svg10.dtd">
<svg version="1.0" xmlns="http://www.w3.org/2000/svg"
 width="512.000000pt" height="512.000000pt" viewBox="0 0 512.000000 512.000000"
 preserveAspectRatio="xMidYMid meet">

<g transform="translate(0.000000,512.000000) scale(0.100000,-0.100000)"
fill="#000000" stroke="none">
<path d="M650 4859 c-331 -43 -598 -315 -640 -653 -13 -107 -13 -1425 0 -1532
44 -350 313 -614 665 -655 60 -7 718 -9 1960 -7 2036 4 1880 -1 2024 57 171
69 332 232 404 407 53 132 52 110 52 969 0 730 -2 805 -17 861 -83 292 -320
507 -608 553 -79 13 -3741 13 -3840 0z m2095 -799 c105 -33 192 -85 271 -164
128 -128 188 -275 188 -456 0 -181 -60 -328 -188 -456 -131 -130 -274 -188
-466 -189 -94 0 -128 4 -185 23 -199 66 -361 228 -427 427 -33 101 -33 289 0
390 76 229 275 403 512 449 58 11 226 -3 295 -24z m-1559 -491 c32 -15 48 -32
65 -65 34 -71 15 -136 -55 -188 -26 -20 -43 -21 -303 -24 -262 -3 -277 -2
-318 18 -32 16 -49 33 -64 64 -31 63 -24 114 22 165 44 47 65 50 346 51 247 0
267 -1 307 -21z"/>
<path d="M377 1499 c-180 -26 -340 -189 -367 -375 -13 -89 -13 -399 0 -488 28
-190 186 -348 376 -376 102 -14 4306 -14 4376 1 74 16 162 62 218 115 55 52
113 155 129 232 14 69 14 475 0 544 -36 169 -177 311 -347 347 -36 8 -302 11
-852 11 l-800 0 0 -257 c0 -240 -1 -260 -20 -291 -11 -18 -34 -41 -52 -52 -32
-19 -52 -20 -478 -20 -426 0 -446 1 -478 20 -18 11 -41 34 -52 52 -19 31 -20
51 -20 291 l0 257 -787 -1 c-434 -1 -814 -5 -846 -10z"/>
</g>
</svg>
